<svg width="24" height="24" viewBox="0 0 24 24" fill="none" xmlns="http://www.w3.org/2000/svg">
<path d="M21.4421 5.56105L18.4421 2.56105C18.3366 2.45571 18.1936 2.39655 18.0446 2.39655C17.8955 2.39655 17.7525 2.45571 17.6471 2.56105L8.64706 11.561C8.54154 11.6664 8.48219 11.8094 8.48206 11.9585V14.9585C8.48206 15.1077 8.54132 15.2508 8.64681 15.3563C8.7523 15.4618 8.89537 15.521 9.04456 15.521H12.0446C12.1937 15.5209 12.3367 15.4616 12.4421 15.356L21.4421 6.35605C21.5474 6.25058 21.6066 6.10761 21.6066 5.95855C21.6066 5.80949 21.5474 5.66652 21.4421 5.56105ZM11.8111 14.396H9.60706V12.192L15.7946 6.00449L17.9986 8.20855L11.8111 14.396ZM18.7946 7.41261L16.5905 5.20855L18.0446 3.75449L20.2486 5.95855L18.7946 7.41261ZM20.8571 11.9585V19.4585C20.8571 19.8066 20.7188 20.1405 20.4726 20.3866C20.2265 20.6328 19.8927 20.771 19.5446 20.771H4.54456C4.19646 20.771 3.86262 20.6328 3.61648 20.3866C3.37034 20.1405 3.23206 19.8066 3.23206 19.4585V4.45855C3.23206 4.11045 3.37034 3.77661 3.61648 3.53047C3.86262 3.28433 4.19646 3.14605 4.54456 3.14605H12.0446C12.1937 3.14605 12.3368 3.20531 12.4423 3.3108C12.5478 3.41629 12.6071 3.55937 12.6071 3.70855C12.6071 3.85773 12.5478 4.00081 12.4423 4.1063C12.3368 4.21179 12.1937 4.27105 12.0446 4.27105H4.54456C4.49483 4.27105 4.44714 4.2908 4.41197 4.32597C4.37681 4.36113 4.35706 4.40882 4.35706 4.45855V19.4585C4.35706 19.5083 4.37681 19.556 4.41197 19.5911C4.44714 19.6263 4.49483 19.646 4.54456 19.646H19.5446C19.5943 19.646 19.642 19.6263 19.6771 19.5911C19.7123 19.556 19.7321 19.5083 19.7321 19.4585V11.9585C19.7321 11.8094 19.7913 11.6663 19.8968 11.5608C20.0023 11.4553 20.1454 11.396 20.2946 11.396C20.4437 11.396 20.5868 11.4553 20.6923 11.5608C20.7978 11.6663 20.8571 11.8094 20.8571 11.9585Z" fill="white"/>
</svg>
